<?xml version="1.0" encoding="UTF-8" ?>
<!DOCTYPE svg PUBLIC "-//W3C//DTD SVG 1.1//EN" "http://www.w3.org/Graphics/SVG/1.1/DTD/svg11.dtd">
<svg width="256pt" height="256pt" viewBox="0 0 256 256" version="1.1" xmlns="http://www.w3.org/2000/svg">
<path fill="#3b405a" d=" M 0.00 0.00 L 19.66 0.00 C 22.85 9.25 30.32 15.18 38.90 18.79 C 41.70 16.67 45.36 17.08 48.25 18.76 C 49.93 20.79 48.97 26.19 52.86 24.88 C 56.16 23.88 62.04 19.19 64.06 23.97 C 65.73 28.99 68.78 37.73 60.76 37.74 C 58.20 38.40 55.95 39.84 53.64 41.09 C 54.79 39.18 56.17 37.39 57.04 35.32 C 50.40 34.83 44.94 29.18 38.14 30.79 C 35.01 29.82 32.38 26.67 28.86 27.70 C 23.23 30.22 19.30 14.62 18.72 25.09 C 11.54 24.27 12.70 14.73 7.07 11.91 C 4.92 14.24 4.05 18.78 0.00 16.21 L 0.00 0.00 Z" />
<path fill="#454963" d=" M 19.66 0.00 L 39.00 0.00 C 38.80 8.72 50.42 5.20 53.82 12.20 C 56.38 17.31 59.21 5.86 62.40 10.50 C 64.48 14.58 68.37 17.02 72.87 15.05 C 72.07 22.15 78.64 29.58 85.69 25.73 C 91.40 21.93 94.19 34.23 87.93 35.04 C 83.21 36.94 78.58 39.85 73.24 38.69 C 69.08 38.30 64.93 37.93 60.76 37.74 C 68.78 37.73 65.73 28.99 64.06 23.97 C 62.04 19.19 56.16 23.88 52.86 24.88 C 48.97 26.19 49.93 20.79 48.25 18.76 C 45.36 17.08 41.70 16.67 38.90 18.79 C 30.32 15.18 22.85 9.25 19.66 0.00 Z" />
<path fill="#4d516b" d=" M 39.00 0.00 L 62.60 0.00 C 67.54 4.62 74.21 3.30 80.31 4.46 C 84.00 0.58 80.53 7.87 81.82 10.12 C 83.88 18.56 94.95 14.75 100.27 19.74 C 105.41 23.98 109.25 17.87 113.87 16.99 C 117.72 20.71 122.94 22.51 127.08 25.75 C 129.47 24.53 135.52 25.64 131.09 28.11 C 127.70 32.42 123.37 25.38 120.72 30.83 C 117.76 30.94 114.60 30.38 112.00 32.06 C 107.32 32.54 102.25 30.88 97.78 32.77 C 94.68 34.22 91.39 35.05 87.93 35.04 C 94.19 34.23 91.40 21.93 85.69 25.73 C 78.64 29.58 72.07 22.15 72.87 15.05 C 68.37 17.02 64.48 14.58 62.40 10.50 C 59.21 5.86 56.38 17.31 53.82 12.20 C 50.42 5.20 38.80 8.72 39.00 0.00 Z" />
<path fill="#535973" d=" M 62.60 0.00 L 87.57 0.00 C 90.33 6.09 99.67 6.44 105.61 6.53 C 111.49 9.90 118.10 7.64 124.42 7.40 C 128.48 13.57 133.98 18.37 141.34 18.34 C 147.02 15.63 153.69 20.87 158.87 16.88 C 165.13 13.80 169.90 23.21 176.30 19.29 C 179.93 16.09 187.45 16.12 188.53 21.76 C 191.50 22.32 193.66 18.03 196.71 20.21 C 206.81 20.89 217.18 20.94 227.36 20.34 C 236.71 16.92 246.42 19.46 256.00 17.09 L 256.00 28.15 C 250.00 27.51 243.28 25.96 237.99 29.71 C 231.93 26.64 225.54 30.70 219.21 30.73 C 214.58 28.05 209.01 30.34 204.32 27.67 C 199.68 25.37 193.97 28.77 197.67 33.34 C 192.31 30.46 184.46 23.81 179.23 29.92 C 179.71 24.75 175.37 28.83 172.60 28.53 C 168.52 26.83 165.92 30.23 162.83 31.86 C 159.55 32.95 156.02 32.00 152.72 33.06 C 152.32 33.00 151.50 32.88 151.09 32.82 C 144.69 30.11 137.52 31.28 130.78 31.17 C 128.93 31.11 127.08 31.14 125.23 31.20 C 123.73 31.09 122.22 30.96 120.72 30.83 C 123.37 25.38 127.70 32.42 131.09 28.11 C 135.52 25.64 129.47 24.53 127.08 25.75 C 122.94 22.51 117.72 20.71 113.87 16.99 C 109.25 17.87 105.41 23.98 100.27 19.74 C 94.95 14.75 83.88 18.56 81.82 10.12 C 80.53 7.87 84.00 0.58 80.31 4.46 C 74.21 3.30 67.54 4.62 62.60 0.00 Z" />
<path fill="#58627d" d=" M 87.57 0.00 L 143.65 0.00 C 146.30 9.40 156.70 8.33 164.44 7.46 C 174.64 4.27 184.47 10.74 194.70 9.51 C 198.32 11.17 201.80 13.53 205.87 13.86 C 214.25 7.77 224.56 15.63 233.66 10.59 C 238.96 7.05 243.81 13.90 248.71 10.74 C 251.03 9.73 253.49 9.09 256.00 8.70 L 256.00 17.09 C 246.42 19.46 236.71 16.92 227.36 20.34 C 217.18 20.94 206.81 20.89 196.71 20.21 C 193.66 18.03 191.50 22.32 188.53 21.76 C 187.45 16.12 179.93 16.09 176.30 19.29 C 169.90 23.21 165.13 13.80 158.87 16.88 C 153.69 20.87 147.02 15.63 141.34 18.34 C 133.98 18.37 128.48 13.57 124.42 7.40 C 118.10 7.64 111.49 9.90 105.61 6.53 C 99.67 6.44 90.33 6.09 87.57 0.00 Z" />
<path fill="#606e88" d=" M 143.65 0.00 L 256.00 0.00 L 256.00 8.70 C 253.49 9.09 251.03 9.73 248.71 10.74 C 243.81 13.90 238.96 7.05 233.66 10.59 C 224.56 15.63 214.25 7.77 205.87 13.86 C 201.80 13.53 198.32 11.17 194.70 9.51 C 184.47 10.74 174.64 4.27 164.44 7.46 C 156.70 8.33 146.30 9.40 143.65 0.00 Z" />
<path fill="#38384d" d=" M 0.00 16.21 C 4.05 18.78 4.92 14.24 7.07 11.91 C 12.70 14.73 11.54 24.27 18.72 25.09 C 19.30 14.62 23.23 30.22 28.86 27.70 C 32.38 26.67 35.01 29.82 38.14 30.79 C 44.94 29.18 50.40 34.83 57.04 35.32 C 56.17 37.39 54.79 39.18 53.64 41.09 C 50.44 45.44 43.97 46.16 41.42 51.05 C 36.69 43.06 25.39 45.22 19.07 39.00 C 11.88 39.12 7.35 32.53 0.00 33.85 L 0.00 16.21 Z" />
<path fill="#bcb4bd" d=" M 172.60 28.53 C 175.37 28.83 179.71 24.75 179.23 29.92 C 184.46 23.81 192.31 30.46 197.67 33.34 C 202.75 39.32 211.55 44.20 212.25 52.44 C 210.15 51.64 207.79 50.78 207.72 48.16 C 204.42 42.16 195.93 41.18 193.97 34.31 C 190.26 37.03 187.67 32.63 184.22 32.14 C 182.20 34.23 178.69 34.67 177.71 37.71 C 177.19 41.36 174.10 38.91 175.44 36.38 C 177.36 31.84 171.17 35.77 168.82 34.09 C 166.61 32.36 165.37 35.55 163.89 36.77 C 162.22 37.60 160.50 38.32 158.84 39.18 C 156.29 37.80 153.04 36.33 152.72 33.06 C 156.02 32.00 159.55 32.95 162.83 31.86 C 165.92 30.23 168.52 26.83 172.60 28.53 Z" />
<path fill="#4e5267" d=" M 197.67 33.34 C 193.97 28.77 199.68 25.37 204.32 27.67 C 209.01 30.34 214.58 28.05 219.21 30.73 C 225.54 30.70 231.93 26.64 237.99 29.71 C 243.28 25.96 250.00 27.51 256.00 28.15 L 256.00 40.80 C 252.95 40.01 250.15 41.95 247.17 41.84 C 243.28 39.28 238.65 38.59 234.09 38.27 C 229.26 39.73 224.77 43.00 219.41 41.40 C 217.38 45.59 214.52 49.13 213.76 53.91 C 213.28 53.88 212.34 53.80 211.87 53.76 C 211.96 53.43 212.15 52.77 212.25 52.44 C 211.55 44.20 202.75 39.32 197.67 33.34 Z" />
<path fill="#958da2" d=" M 112.00 32.06 C 114.60 30.38 117.76 30.94 120.72 30.83 C 122.22 30.96 123.73 31.09 125.23 31.20 C 120.84 31.76 116.42 31.88 112.00 32.06 Z" />
<path fill="#c5b0b2" d=" M 125.23 31.20 C 127.08 31.14 128.93 31.11 130.78 31.17 C 137.53 31.85 144.31 32.41 151.09 32.82 C 151.68 35.19 152.45 37.51 152.89 39.92 C 148.86 41.20 144.16 39.08 141.10 42.84 C 135.59 37.93 127.43 41.48 120.60 40.46 C 116.00 41.52 104.64 40.44 107.98 48.13 C 105.19 47.90 103.98 44.99 102.30 43.16 C 101.83 46.28 99.98 48.32 95.96 47.36 C 95.66 50.44 98.95 51.80 100.49 53.99 C 100.39 55.58 99.80 55.87 98.73 54.84 C 95.11 52.58 91.39 50.46 87.77 48.20 C 81.65 45.63 73.05 54.40 68.83 47.12 C 72.53 48.26 81.79 45.10 78.84 41.04 C 75.80 41.80 73.04 43.42 69.97 44.07 C 69.31 41.39 70.69 39.43 73.24 38.69 C 78.58 39.85 83.21 36.94 87.93 35.04 C 91.39 35.05 94.68 34.22 97.78 32.77 C 102.46 33.32 107.59 34.26 112.00 32.06 C 116.42 31.88 120.84 31.76 125.23 31.20 Z" />
<path fill="#8c8697" d=" M 130.78 31.17 C 137.52 31.28 144.69 30.11 151.09 32.82 C 144.31 32.41 137.53 31.85 130.78 31.17 Z" />
<path fill="#88808d" d=" M 97.78 32.77 C 102.25 30.88 107.32 32.54 112.00 32.06 C 107.59 34.26 102.46 33.32 97.78 32.77 Z" />
<path fill="#95868a" d=" M 177.71 37.71 C 178.69 34.67 182.20 34.23 184.22 32.14 C 187.67 32.63 190.26 37.03 193.97 34.31 C 195.93 41.18 204.42 42.16 207.72 48.16 C 207.79 50.78 210.15 51.64 212.25 52.44 C 212.15 52.77 211.96 53.43 211.87 53.76 C 207.60 54.45 209.60 57.29 212.28 58.68 C 214.45 62.64 221.96 70.18 219.36 58.76 C 219.82 62.13 220.03 65.53 220.05 68.93 C 219.19 76.57 215.33 68.17 211.11 67.73 C 208.19 61.89 202.31 56.74 207.02 49.93 C 202.02 53.81 201.29 49.79 201.35 45.07 C 195.62 42.72 193.98 44.33 196.83 48.92 C 193.08 46.84 192.43 49.77 190.40 50.75 C 190.22 46.57 185.66 48.97 183.07 49.34 C 177.84 46.35 171.84 43.80 168.55 38.43 C 167.78 36.55 165.49 37.12 163.89 36.77 C 165.37 35.55 166.61 32.36 168.82 34.09 C 171.17 35.77 177.36 31.84 175.44 36.38 C 174.10 38.91 177.19 41.36 177.71 37.71 Z" />
<path fill="#ba9d9e" d=" M 151.09 32.82 C 151.50 32.88 152.32 33.00 152.72 33.06 C 153.04 36.33 156.29 37.80 158.84 39.18 C 155.30 40.89 157.11 42.56 159.74 44.06 L 160.14 44.85 C 159.12 47.55 159.06 51.56 155.89 52.63 C 154.23 51.69 152.67 50.76 152.64 53.47 C 143.50 56.11 135.78 51.66 127.86 47.29 C 125.99 46.61 126.02 44.56 125.66 42.90 C 124.48 45.46 123.35 48.12 123.78 51.01 C 117.83 46.18 111.45 55.22 105.17 50.97 C 105.04 53.86 103.14 54.50 100.49 53.99 C 98.95 51.80 95.66 50.44 95.96 47.36 C 99.98 48.32 101.83 46.28 102.30 43.16 C 103.98 44.99 105.19 47.90 107.98 48.13 C 104.64 40.44 116.00 41.52 120.60 40.46 C 127.43 41.48 135.59 37.93 141.10 42.84 C 144.16 39.08 148.86 41.20 152.89 39.92 C 152.45 37.51 151.68 35.19 151.09 32.82 Z" />
<path fill="#312d3f" d=" M 0.00 33.85 C 7.35 32.53 11.88 39.12 19.07 39.00 C 25.39 45.22 36.69 43.06 41.42 51.05 C 41.05 53.19 40.19 55.18 38.93 56.96 C 34.59 65.34 34.64 75.23 31.69 84.13 C 29.58 78.58 28.72 71.35 21.75 70.19 C 15.89 64.09 8.35 60.25 0.00 58.65 L 0.00 33.85 Z" />
<path fill="#726269" d=" M 158.84 39.18 C 160.50 38.32 162.22 37.60 163.89 36.77 C 165.49 37.12 167.78 36.55 168.55 38.43 C 171.84 43.80 177.84 46.35 183.07 49.34 C 185.66 48.97 190.22 46.57 190.40 50.75 C 192.43 49.77 193.08 46.84 196.83 48.92 C 193.98 44.33 195.62 42.72 201.35 45.07 C 201.29 49.79 202.02 53.81 207.02 49.93 C 202.31 56.74 208.19 61.89 211.11 67.73 C 212.65 70.91 216.89 72.99 216.02 76.97 C 211.15 75.48 209.71 76.99 214.71 79.35 C 218.92 87.20 210.05 82.03 205.82 81.94 C 209.75 84.16 210.79 89.86 213.48 91.87 C 206.51 94.81 214.12 93.93 218.22 94.17 L 218.20 95.23 C 218.00 95.71 217.60 96.67 217.40 97.15 C 216.59 92.70 210.00 97.45 208.89 100.21 C 207.88 99.76 206.88 99.33 205.87 98.89 C 204.49 94.81 210.81 95.25 208.65 91.36 C 205.81 82.65 195.85 78.93 194.28 69.79 C 193.00 66.56 196.75 58.45 190.97 62.86 C 186.83 56.57 179.37 54.89 175.64 48.38 C 174.40 46.50 171.78 47.96 169.91 47.80 C 169.23 43.61 161.89 38.28 159.74 44.06 C 157.11 42.56 155.30 40.89 158.84 39.18 Z" />
<path fill="#b29597" d=" M 53.64 41.09 C 55.95 39.84 58.20 38.40 60.76 37.74 C 64.93 37.93 69.08 38.30 73.24 38.69 C 70.69 39.43 69.31 41.39 69.97 44.07 C 73.04 43.42 75.80 41.80 78.84 41.04 C 81.79 45.10 72.53 48.26 68.83 47.12 C 73.05 54.40 81.65 45.63 87.77 48.20 C 91.39 50.46 95.11 52.58 98.73 54.84 C 96.56 55.29 96.17 56.92 96.64 58.87 C 93.15 59.42 89.68 59.88 86.31 60.95 C 85.40 58.46 84.96 55.81 83.90 53.37 C 79.78 55.32 71.42 50.30 70.19 56.72 C 67.43 58.56 63.10 55.74 61.75 59.77 C 60.26 62.94 52.38 66.84 53.63 60.71 C 56.19 54.85 60.32 50.15 64.23 45.23 C 62.17 45.45 59.96 46.22 58.13 44.82 C 56.47 43.79 54.33 43.13 53.64 41.09 Z" />
<path fill="#474658" d=" M 219.41 41.40 C 224.77 43.00 229.26 39.73 234.09 38.27 C 238.65 38.59 243.28 39.28 247.17 41.84 C 250.15 41.95 252.95 40.01 256.00 40.80 L 256.00 59.56 C 248.83 59.43 252.41 71.70 243.98 69.11 C 236.28 70.40 228.21 69.99 221.27 66.20 C 220.85 67.48 220.52 68.79 220.12 70.08 L 220.05 68.93 C 220.03 65.53 219.82 62.13 219.36 58.76 C 219.30 55.70 215.75 55.35 213.76 53.91 C 214.52 49.13 217.38 45.59 219.41 41.40 Z" />
<path fill="#927f87" d=" M 41.42 51.05 C 43.97 46.16 50.44 45.44 53.64 41.09 C 54.33 43.13 56.47 43.79 58.13 44.82 C 52.95 45.87 45.91 47.27 43.97 52.90 L 43.75 53.73 C 42.77 57.10 37.89 64.96 38.93 56.96 C 40.19 55.18 41.05 53.19 41.42 51.05 Z" />
<path fill="#5d4c57" d=" M 159.74 44.06 C 161.89 38.28 169.23 43.61 169.91 47.80 C 164.70 50.23 173.99 56.23 175.23 59.78 C 179.54 70.80 181.79 82.53 184.98 93.97 C 182.55 91.73 179.16 92.14 176.09 91.84 C 174.12 86.94 181.10 81.31 176.75 77.68 C 176.51 72.58 175.95 66.11 169.87 64.97 L 169.96 64.16 C 172.65 57.84 166.57 53.88 162.97 50.00 C 161.99 48.31 161.05 46.58 160.14 44.85 L 159.74 44.06 Z" />
<path fill="#a68585" d=" M 123.78 51.01 C 123.35 48.12 124.48 45.46 125.66 42.90 C 126.02 44.56 125.99 46.61 127.86 47.29 C 135.78 51.66 143.50 56.11 152.64 53.47 C 152.67 50.76 154.23 51.69 155.89 52.63 C 159.06 51.56 159.12 47.55 160.14 44.85 C 161.05 46.58 161.99 48.31 162.97 50.00 C 162.94 50.66 162.88 51.98 162.85 52.64 C 159.23 56.40 163.86 60.11 161.90 63.91 C 156.65 60.13 153.91 67.38 152.38 71.25 C 154.54 63.55 145.49 53.63 139.52 61.64 C 136.26 60.15 139.53 55.56 139.00 52.76 C 135.57 55.14 137.29 60.26 134.49 63.12 C 134.17 58.83 129.78 53.16 125.26 56.31 C 123.60 58.90 121.41 54.38 121.96 57.98 C 121.53 63.28 117.57 56.32 117.57 53.98 C 114.54 55.74 118.01 59.18 118.29 61.68 C 114.55 61.03 113.30 59.67 114.78 55.75 C 113.26 57.04 113.07 59.03 112.65 60.85 C 110.21 61.55 111.72 57.30 109.11 57.98 C 112.23 72.61 104.83 54.31 106.35 60.78 C 109.32 66.18 98.65 60.81 99.48 66.70 C 101.37 73.15 94.41 61.38 95.00 66.93 C 95.72 70.51 89.73 69.43 90.77 66.10 C 88.81 62.00 80.40 66.81 79.74 61.17 C 79.85 56.46 71.66 55.72 70.10 59.51 C 66.27 62.38 61.00 63.06 58.49 67.46 C 57.67 68.91 56.98 68.84 56.54 67.15 C 53.98 67.98 56.21 70.04 56.79 71.60 C 55.27 72.70 52.69 73.04 52.22 75.11 C 53.07 79.04 46.85 76.76 48.58 80.36 C 49.72 83.69 44.54 90.15 41.52 87.95 C 42.40 78.76 46.78 70.52 50.03 62.04 C 51.22 61.57 52.42 61.14 53.63 60.71 C 52.38 66.84 60.26 62.94 61.75 59.77 C 63.10 55.74 67.43 58.56 70.19 56.72 C 71.42 50.30 79.78 55.32 83.90 53.37 C 84.96 55.81 85.40 58.46 86.31 60.95 C 89.68 59.88 93.15 59.42 96.64 58.87 C 96.17 56.92 96.56 55.29 98.73 54.84 C 99.80 55.87 100.39 55.58 100.49 53.99 C 103.14 54.50 105.04 53.86 105.17 50.97 C 111.45 55.22 117.83 46.18 123.78 51.01 Z" />
<path fill="#7b6167" d=" M 43.97 52.90 C 45.91 47.27 52.95 45.87 58.13 44.82 C 59.96 46.22 62.17 45.45 64.23 45.23 C 60.32 50.15 56.19 54.85 53.63 60.71 C 52.42 61.14 51.22 61.57 50.03 62.04 C 49.04 57.00 52.23 53.19 54.15 49.00 C 50.66 49.99 47.11 51.02 43.97 52.90 Z" />
<path fill="#574a55" d=" M 169.91 47.80 C 171.78 47.96 174.40 46.50 175.64 48.38 C 179.37 54.89 186.83 56.57 190.97 62.86 C 196.75 58.45 193.00 66.56 194.28 69.79 C 189.17 68.45 187.49 63.26 184.42 59.61 C 179.14 56.19 175.55 50.81 169.91 47.80 Z" />
<path fill="#37303f" d=" M 175.23 59.78 C 173.99 56.23 164.70 50.23 169.91 47.80 C 175.55 50.81 179.14 56.19 184.42 59.61 C 187.49 63.26 189.17 68.45 194.28 69.79 C 192.44 74.28 197.94 78.38 194.90 82.35 C 199.90 82.20 195.68 88.67 198.65 91.38 C 198.76 89.75 198.99 86.50 199.11 84.87 C 202.91 88.36 203.14 93.41 202.34 98.19 C 200.86 98.64 199.35 99.02 197.83 99.34 C 193.64 97.80 189.52 96.03 185.22 94.78 L 184.98 93.97 C 181.79 82.53 179.54 70.80 175.23 59.78 Z" />
<path fill="#533b3f" d=" M 43.97 52.90 C 47.11 51.02 50.66 49.99 54.15 49.00 C 52.23 53.19 49.04 57.00 50.03 62.04 C 46.78 70.52 42.40 78.76 41.52 87.95 C 40.36 94.67 40.14 101.49 39.80 108.29 C 36.19 105.85 37.42 100.53 33.85 98.15 C 30.50 96.26 33.11 92.06 33.08 89.04 C 33.52 89.22 34.41 89.57 34.85 89.74 C 37.04 83.95 38.26 77.84 40.54 72.09 C 36.57 65.81 46.93 60.25 43.75 53.73 L 43.97 52.90 Z" />
<path fill="#786468" d=" M 162.97 50.00 C 166.57 53.88 172.65 57.84 169.96 64.16 C 163.46 64.35 165.76 56.44 162.85 52.64 C 162.88 51.98 162.94 50.66 162.97 50.00 Z" />
<path fill="#977475" d=" M 134.49 63.12 C 137.29 60.26 135.57 55.14 139.00 52.76 C 139.53 55.56 136.26 60.15 139.52 61.64 C 145.49 53.63 154.54 63.55 152.38 71.25 C 153.91 67.38 156.65 60.13 161.90 63.91 C 163.86 60.11 159.23 56.40 162.85 52.64 C 165.76 56.44 163.46 64.35 169.96 64.16 L 169.87 64.97 C 168.20 68.57 171.07 71.32 172.62 74.29 C 173.11 79.04 172.68 84.73 167.50 86.38 C 164.28 86.83 165.57 89.80 165.78 92.04 C 160.96 93.18 159.33 83.52 154.43 88.83 C 153.95 85.45 151.88 84.60 148.84 85.81 C 148.44 83.01 153.09 82.19 151.67 79.45 C 146.08 76.86 155.50 66.20 147.10 66.90 C 146.37 71.56 148.18 77.01 146.29 81.35 C 143.91 83.63 143.05 79.26 142.06 77.73 C 142.07 79.24 142.09 82.26 142.10 83.77 C 138.66 84.23 141.65 75.72 139.01 78.96 C 135.67 81.44 136.11 74.12 132.42 77.33 C 128.69 79.77 135.09 68.32 129.92 71.60 C 122.96 73.37 129.27 65.38 125.33 62.71 C 130.61 72.42 120.10 63.86 122.71 69.16 C 124.47 73.58 121.01 69.20 119.07 72.06 C 119.63 69.02 120.01 65.57 117.83 63.03 C 114.96 62.94 115.01 68.09 112.18 67.96 C 110.97 66.55 111.05 64.60 110.63 62.88 C 108.65 67.46 102.83 66.98 102.75 72.77 C 97.82 72.36 93.59 72.21 89.19 69.73 C 89.83 72.84 90.91 75.84 91.70 78.91 C 87.98 82.96 85.94 70.01 84.80 77.80 C 82.46 76.48 78.81 73.08 78.76 77.82 C 78.77 78.80 76.95 81.09 79.02 80.91 C 84.02 81.36 76.65 84.93 75.78 81.16 C 73.10 74.67 77.59 73.04 82.92 71.75 C 82.88 67.31 78.93 68.74 76.99 71.14 C 74.45 68.73 71.27 62.81 67.28 66.19 C 69.28 71.04 65.29 69.96 61.85 69.17 C 66.37 73.31 55.81 75.55 52.22 75.11 C 52.69 73.04 55.27 72.70 56.79 71.60 C 56.21 70.04 53.98 67.98 56.54 67.15 C 56.98 68.84 57.67 68.91 58.49 67.46 C 61.00 63.06 66.27 62.38 70.10 59.51 C 71.66 55.72 79.85 56.46 79.74 61.17 C 80.40 66.81 88.81 62.00 90.77 66.10 C 89.73 69.43 95.72 70.51 95.00 66.93 C 94.41 61.38 101.37 73.15 99.48 66.70 C 98.65 60.81 109.32 66.18 106.35 60.78 C 104.83 54.31 112.23 72.61 109.11 57.98 C 111.72 57.30 110.21 61.55 112.65 60.85 C 113.07 59.03 113.26 57.04 114.78 55.75 C 113.30 59.67 114.55 61.03 118.29 61.68 C 118.01 59.18 114.54 55.74 117.57 53.98 C 117.57 56.32 121.53 63.28 121.96 57.98 C 121.41 54.38 123.60 58.90 125.26 56.31 C 129.78 53.16 134.17 58.83 134.49 63.12 Z" />
<path fill="#725a5f" d=" M 38.93 56.96 C 37.89 64.96 42.77 57.10 43.75 53.73 C 46.93 60.25 36.57 65.81 40.54 72.09 C 38.26 77.84 37.04 83.95 34.85 89.74 C 34.41 89.57 33.52 89.22 33.08 89.04 C 32.99 87.31 32.65 85.60 31.69 84.13 C 34.64 75.23 34.59 65.34 38.93 56.96 Z" />
<path fill="#b3a9ae" d=" M 212.28 58.68 C 209.60 57.29 207.60 54.45 211.87 53.76 C 212.34 53.80 213.28 53.88 213.76 53.91 C 215.75 55.35 219.30 55.70 219.36 58.76 C 221.96 70.18 214.45 62.64 212.28 58.68 Z" />
<path fill="#2a212f" d=" M 0.00 58.65 C 8.35 60.25 15.89 64.09 21.75 70.19 C 28.72 71.35 29.58 78.58 31.69 84.13 C 32.65 85.60 32.99 87.31 33.08 89.04 C 33.11 92.06 30.50 96.26 33.85 98.15 C 37.42 100.53 36.19 105.85 39.80 108.29 C 40.64 112.22 41.46 116.16 41.93 120.15 C 41.87 120.68 41.76 121.72 41.71 122.24 C 39.24 116.92 39.58 110.15 34.72 106.20 C 31.04 105.16 32.72 112.83 28.57 111.71 C 20.94 114.59 15.85 109.49 10.69 105.26 C 7.08 104.83 3.63 107.67 0.00 105.47 L 0.00 58.65 Z" />
<path fill="#3d3b4a" d=" M 243.98 69.11 C 252.41 71.70 248.83 59.43 256.00 59.56 L 256.00 75.54 C 249.90 80.45 243.12 83.48 235.01 82.06 C 228.23 84.52 221.94 88.82 218.20 95.23 L 218.22 94.17 C 218.47 86.12 218.61 78.02 220.12 70.08 C 220.52 68.79 220.85 67.48 221.27 66.20 C 228.21 69.99 236.28 70.40 243.98 69.11 Z" />
<path fill="#896061" d=" M 102.75 72.77 C 102.83 66.98 108.65 67.46 110.63 62.88 C 111.05 64.60 110.97 66.55 112.18 67.96 C 115.01 68.09 114.96 62.94 117.83 63.03 C 120.01 65.57 119.63 69.02 119.07 72.06 C 121.01 69.20 124.47 73.58 122.71 69.16 C 120.10 63.86 130.61 72.42 125.33 62.71 C 129.27 65.38 122.96 73.37 129.92 71.60 C 130.74 74.54 128.95 76.40 126.49 77.54 C 125.02 80.80 124.79 84.71 122.02 87.27 C 118.60 86.38 118.10 80.68 122.27 81.40 C 124.48 81.67 124.42 78.79 122.58 78.30 C 120.63 81.55 117.69 77.56 114.88 78.01 C 114.56 80.39 119.38 81.26 117.27 83.26 C 114.30 88.11 110.59 77.08 106.95 81.99 C 103.88 76.47 99.31 82.79 94.77 81.79 C 92.29 83.08 88.36 84.81 86.10 82.49 C 90.38 79.77 80.31 80.49 78.76 77.82 C 78.81 73.08 82.46 76.48 84.80 77.80 C 85.94 70.01 87.98 82.96 91.70 78.91 C 90.91 75.84 89.83 72.84 89.19 69.73 C 93.59 72.21 97.82 72.36 102.75 72.77 Z" />
<path fill="#886666" d=" M 67.28 66.19 C 71.27 62.81 74.45 68.73 76.99 71.14 C 78.93 68.74 82.88 67.31 82.92 71.75 C 77.59 73.04 73.10 74.67 75.78 81.16 C 72.24 83.64 67.88 81.98 63.92 82.89 C 63.93 79.14 74.11 80.94 69.38 76.65 C 67.63 72.12 62.52 74.72 60.91 77.97 C 59.28 80.58 61.73 83.44 62.00 86.14 C 59.82 86.03 59.58 83.58 58.57 82.11 C 56.08 83.80 53.52 85.40 51.12 87.21 C 51.65 89.56 52.80 91.74 53.11 94.16 C 51.47 93.64 50.49 92.21 49.29 91.10 C 48.83 94.28 47.14 96.84 45.00 99.13 C 44.55 103.36 49.59 101.54 52.03 101.17 C 56.10 99.52 53.70 105.67 54.20 108.16 C 54.59 112.37 47.00 107.69 47.98 111.97 C 47.57 113.84 50.37 112.11 51.35 112.41 C 50.50 114.85 47.17 114.81 46.20 117.15 C 45.15 118.79 44.36 121.90 41.93 120.15 C 41.46 116.16 40.64 112.22 39.80 108.29 C 40.14 101.49 40.36 94.67 41.52 87.95 C 44.54 90.15 49.72 83.69 48.58 80.36 C 46.85 76.76 53.07 79.04 52.22 75.11 C 55.81 75.55 66.37 73.31 61.85 69.17 C 65.29 69.96 69.28 71.04 67.28 66.19 Z" />
<path fill="#836264" d=" M 169.87 64.97 C 175.95 66.11 176.51 72.58 176.75 77.68 C 181.10 81.31 174.12 86.94 176.09 91.84 C 167.97 93.33 167.77 104.49 165.12 110.93 C 161.23 114.03 156.13 119.74 151.32 114.70 C 149.75 112.35 148.66 111.36 148.72 115.04 C 145.21 114.66 144.08 110.54 143.87 107.55 C 145.41 106.07 146.88 104.49 148.79 103.47 C 145.91 98.46 141.92 94.76 139.57 89.50 C 142.42 85.49 145.39 87.23 149.22 88.02 C 147.50 85.72 144.79 84.52 142.10 83.77 C 142.09 82.26 142.07 79.24 142.06 77.73 C 143.05 79.26 143.91 83.63 146.29 81.35 C 148.18 77.01 146.37 71.56 147.10 66.90 C 155.50 66.20 146.08 76.86 151.67 79.45 C 153.09 82.19 148.44 83.01 148.84 85.81 C 151.88 84.60 153.95 85.45 154.43 88.83 C 159.33 83.52 160.96 93.18 165.78 92.04 C 165.57 89.80 164.28 86.83 167.50 86.38 C 172.68 84.73 173.11 79.04 172.62 74.29 C 171.07 71.32 168.20 68.57 169.87 64.97 Z" />
<path fill="#7f7175" d=" M 211.11 67.73 C 215.33 68.17 219.19 76.57 220.05 68.93 L 220.12 70.08 C 218.61 78.02 218.47 86.12 218.22 94.17 C 214.12 93.93 206.51 94.81 213.48 91.87 C 210.79 89.86 209.75 84.16 205.82 81.94 C 210.05 82.03 218.92 87.20 214.71 79.35 C 209.71 76.99 211.15 75.48 216.02 76.97 C 216.89 72.99 212.65 70.91 211.11 67.73 Z" />
<path fill="#524550" d=" M 194.28 69.79 C 195.85 78.93 205.81 82.65 208.65 91.36 C 210.81 95.25 204.49 94.81 205.87 98.89 C 204.69 98.66 203.52 98.39 202.34 98.19 C 203.14 93.41 202.91 88.36 199.11 84.87 C 198.99 86.50 198.76 89.75 198.65 91.38 C 195.68 88.67 199.90 82.20 194.90 82.35 C 197.94 78.38 192.44 74.28 194.28 69.79 Z" />
<path fill="#7c5355" d=" M 129.92 71.60 C 135.09 68.32 128.69 79.77 132.42 77.33 C 136.11 74.12 135.67 81.44 139.01 78.96 C 141.65 75.72 138.66 84.23 142.10 83.77 C 144.79 84.52 147.50 85.72 149.22 88.02 C 145.39 87.23 142.42 85.49 139.57 89.50 C 141.92 94.76 145.91 98.46 148.79 103.47 C 146.88 104.49 145.41 106.07 143.87 107.55 C 139.66 106.92 138.07 102.23 137.81 98.57 C 134.14 99.93 134.01 95.09 137.80 96.66 C 140.48 94.12 137.90 87.75 134.06 91.86 C 138.09 86.42 128.12 84.05 128.87 90.06 C 128.67 92.42 126.54 89.65 126.58 88.49 C 122.55 87.07 122.37 92.46 118.74 92.67 C 114.80 94.70 118.60 87.09 115.39 85.94 C 113.34 88.35 114.17 96.39 109.88 92.61 C 107.80 91.68 103.86 89.05 108.18 88.20 C 112.14 87.20 108.04 83.81 106.95 81.99 C 110.59 77.08 114.30 88.11 117.27 83.26 C 119.38 81.26 114.56 80.39 114.88 78.01 C 117.69 77.56 120.63 81.55 122.58 78.30 C 124.42 78.79 124.48 81.67 122.27 81.40 C 118.10 80.68 118.60 86.38 122.02 87.27 C 124.79 84.71 125.02 80.80 126.49 77.54 C 128.95 76.40 130.74 74.54 129.92 71.60 Z" />
<path fill="#7f5555" d=" M 60.91 77.97 C 62.52 74.72 67.63 72.12 69.38 76.65 C 74.11 80.94 63.93 79.14 63.92 82.89 C 67.88 81.98 72.24 83.64 75.78 81.16 C 76.65 84.93 84.02 81.36 79.02 80.91 C 76.95 81.09 78.77 78.80 78.76 77.82 C 80.31 80.49 90.38 79.77 86.10 82.49 C 88.36 84.81 92.29 83.08 94.77 81.79 C 94.60 85.48 105.07 94.55 96.37 94.91 C 96.55 89.74 91.78 95.29 89.30 91.91 C 91.17 97.64 87.09 92.91 85.12 90.86 C 85.37 92.29 85.69 93.72 85.90 95.16 C 82.66 95.02 84.34 88.40 80.43 90.31 C 75.55 98.43 74.99 80.50 68.61 84.58 C 65.18 86.97 63.00 90.78 59.71 93.39 C 59.96 96.43 63.36 103.64 57.87 101.33 C 58.96 103.43 61.42 106.47 58.37 108.14 C 58.93 103.50 53.22 99.43 54.20 108.16 C 53.70 105.67 56.10 99.52 52.03 101.17 C 49.59 101.54 44.55 103.36 45.00 99.13 C 47.14 96.84 48.83 94.28 49.29 91.10 C 50.49 92.21 51.47 93.64 53.11 94.16 C 52.80 91.74 51.65 89.56 51.12 87.21 C 53.52 85.40 56.08 83.80 58.57 82.11 C 59.58 83.58 59.82 86.03 62.00 86.14 C 61.73 83.44 59.28 80.58 60.91 77.97 Z" />
<path fill="#2e2d3d" d=" M 235.01 82.06 C 243.12 83.48 249.90 80.45 256.00 75.54 L 256.00 154.30 C 251.75 148.99 245.05 156.83 241.42 151.54 C 238.13 152.04 233.29 150.40 232.53 147.37 C 237.78 141.99 234.90 135.86 237.64 130.10 C 234.57 126.49 239.96 117.28 233.06 117.99 C 229.48 118.57 233.70 123.44 230.80 124.81 C 228.09 124.67 225.41 124.08 222.75 123.72 C 223.24 121.17 223.75 118.63 224.21 116.08 C 225.29 113.28 226.03 110.32 225.89 107.28 C 222.75 105.83 219.35 105.10 216.04 104.14 C 216.21 103.61 216.53 102.56 216.70 102.03 C 217.01 100.42 217.18 98.78 217.40 97.15 C 217.60 96.67 218.00 95.71 218.20 95.23 C 221.94 88.82 228.23 84.52 235.01 82.06 Z" />
<path fill="#744949" d=" M 94.77 81.79 C 99.31 82.79 103.88 76.47 106.95 81.99 C 108.04 83.81 112.14 87.20 108.18 88.20 C 103.86 89.05 107.80 91.68 109.88 92.61 C 108.95 96.99 114.34 100.91 112.55 106.22 C 107.00 106.80 109.98 95.05 105.59 99.59 C 104.04 101.93 102.51 97.49 100.22 99.11 C 95.95 101.94 105.26 102.93 101.94 106.02 C 99.03 104.15 96.38 101.71 92.86 101.06 C 91.36 104.73 97.96 106.97 94.88 109.92 C 92.22 109.81 92.47 105.85 90.19 104.67 C 90.36 107.72 90.88 110.78 90.99 113.84 C 87.90 112.95 84.35 112.39 82.84 115.97 C 88.20 113.88 95.16 112.71 100.03 116.43 C 95.87 118.52 92.75 122.27 87.84 123.02 C 87.97 120.27 90.52 118.87 92.99 119.70 C 92.86 113.28 80.14 121.39 82.94 126.96 C 81.50 126.18 80.13 125.03 78.41 125.04 C 78.85 130.13 70.28 127.65 72.32 123.33 C 71.43 118.93 75.62 121.91 76.32 124.27 C 78.64 120.27 73.92 110.75 80.96 113.85 C 80.16 110.71 82.14 103.22 76.62 105.51 C 73.72 104.84 79.75 101.11 76.24 99.83 C 72.14 97.64 71.91 92.38 67.34 90.81 C 67.37 93.78 69.48 98.03 65.43 98.54 C 65.90 102.86 60.61 105.30 62.51 109.42 C 63.12 113.53 68.69 111.80 70.96 109.91 C 74.76 114.53 66.15 122.49 62.81 118.10 C 62.02 116.70 57.73 112.78 58.58 116.37 C 59.04 120.96 54.40 113.44 52.21 114.09 C 47.84 122.35 47.99 131.88 48.80 140.94 C 48.61 144.19 45.34 142.40 43.90 141.07 C 44.26 134.69 43.53 128.35 41.71 122.24 C 41.76 121.72 41.87 120.68 41.93 120.15 C 44.36 121.90 45.15 118.79 46.20 117.15 C 47.17 114.81 50.50 114.85 51.35 112.41 C 50.37 112.11 47.57 113.84 47.98 111.97 C 47.00 107.69 54.59 112.37 54.20 108.16 C 53.22 99.43 58.93 103.50 58.37 108.14 C 61.42 106.47 58.96 103.43 57.87 101.33 C 63.36 103.64 59.96 96.43 59.71 93.39 C 63.00 90.78 65.18 86.97 68.61 84.58 C 74.99 80.50 75.55 98.43 80.43 90.31 C 84.34 88.40 82.66 95.02 85.90 95.16 C 85.69 93.72 85.37 92.29 85.12 90.86 C 87.09 92.91 91.17 97.64 89.30 91.91 C 91.78 95.29 96.55 89.74 96.37 94.91 C 105.07 94.55 94.60 85.48 94.77 81.79 Z" />
<path fill="#6d4146" d=" M 115.39 85.94 C 118.60 87.09 114.80 94.70 118.74 92.67 C 122.37 92.46 122.55 87.07 126.58 88.49 C 126.54 89.65 128.67 92.42 128.87 90.06 C 128.12 84.05 138.09 86.42 134.06 91.86 C 137.90 87.75 140.48 94.12 137.80 96.66 C 134.01 95.09 134.14 99.93 137.81 98.57 C 138.07 102.23 139.66 106.92 143.87 107.55 C 144.08 110.54 145.21 114.66 148.72 115.04 C 148.66 111.36 149.75 112.35 151.32 114.70 C 156.13 119.74 161.23 114.03 165.12 110.93 C 164.76 112.48 164.39 114.02 163.96 115.55 C 163.38 121.50 152.80 126.26 157.81 133.04 C 156.39 133.90 154.82 134.47 153.23 134.94 C 150.57 134.17 148.02 133.06 145.30 132.52 C 142.57 136.39 137.67 131.13 136.99 137.63 C 135.68 138.47 134.34 139.27 132.99 140.04 C 129.91 140.22 126.90 140.70 123.99 141.73 C 122.99 138.69 123.16 133.76 119.00 135.57 C 118.72 133.22 121.11 127.89 122.96 132.04 C 122.31 126.67 123.95 128.91 126.85 131.15 C 127.74 128.48 125.89 123.82 129.92 123.54 C 129.03 119.01 124.62 116.43 121.15 113.86 C 116.80 110.71 123.33 118.17 118.52 118.76 C 117.16 116.23 114.94 114.67 112.03 114.63 C 111.79 111.07 115.38 112.43 117.06 113.84 C 120.81 109.94 112.61 104.94 112.14 111.16 C 110.22 110.59 96.16 114.89 109.03 114.03 C 112.13 115.37 105.42 116.04 107.76 119.03 C 105.37 117.95 101.66 115.27 99.95 118.70 C 101.66 119.38 103.41 119.95 105.13 120.61 C 100.69 120.15 102.39 124.29 102.85 127.02 C 96.59 123.73 88.94 126.27 83.27 129.77 C 83.17 128.84 83.29 127.85 82.94 126.96 C 80.14 121.39 92.86 113.28 92.99 119.70 C 90.52 118.87 87.97 120.27 87.84 123.02 C 92.75 122.27 95.87 118.52 100.03 116.43 C 95.16 112.71 88.20 113.88 82.84 115.97 C 84.35 112.39 87.90 112.95 90.99 113.84 C 90.88 110.78 90.36 107.72 90.19 104.67 C 92.47 105.85 92.22 109.81 94.88 109.92 C 97.96 106.97 91.36 104.73 92.86 101.06 C 96.38 101.71 99.03 104.15 101.94 106.02 C 105.26 102.93 95.95 101.94 100.22 99.11 C 102.51 97.49 104.04 101.93 105.59 99.59 C 109.98 95.05 107.00 106.80 112.55 106.22 C 114.34 100.91 108.95 96.99 109.88 92.61 C 114.17 96.39 113.34 88.35 115.39 85.94 Z" />
<path fill="#64383a" d=" M 67.34 90.81 C 71.91 92.38 72.14 97.64 76.24 99.83 C 79.75 101.11 73.72 104.84 76.62 105.51 C 82.14 103.22 80.16 110.71 80.96 113.85 C 73.92 110.75 78.64 120.27 76.32 124.27 C 75.62 121.91 71.43 118.93 72.32 123.33 C 70.28 127.65 78.85 130.13 78.41 125.04 C 80.13 125.03 81.50 126.18 82.94 126.96 C 83.29 127.85 83.17 128.84 83.27 129.77 C 88.94 126.27 96.59 123.73 102.85 127.02 C 102.39 124.29 100.69 120.15 105.13 120.61 C 103.41 119.95 101.66 119.38 99.95 118.70 C 101.66 115.27 105.37 117.95 107.76 119.03 C 105.42 116.04 112.13 115.37 109.03 114.03 C 96.16 114.89 110.22 110.59 112.14 111.16 C 112.61 104.94 120.81 109.94 117.06 113.84 C 115.38 112.43 111.79 111.07 112.03 114.63 C 114.94 114.67 117.16 116.23 118.52 118.76 C 123.33 118.17 116.80 110.71 121.15 113.86 C 124.62 116.43 129.03 119.01 129.92 123.54 C 125.89 123.82 127.74 128.48 126.85 131.15 C 123.95 128.91 122.31 126.67 122.96 132.04 C 121.11 127.89 118.72 133.22 119.00 135.57 C 123.16 133.76 122.99 138.69 123.99 141.73 C 126.90 140.70 129.91 140.22 132.99 140.04 C 132.99 140.73 133.00 142.10 133.01 142.78 C 128.50 146.55 122.93 141.73 117.80 144.43 C 113.83 143.41 111.06 139.69 107.67 137.48 C 101.46 138.36 95.75 135.27 89.86 133.90 C 82.43 135.06 75.02 136.43 67.85 139.95 C 68.03 138.19 70.39 133.49 67.18 136.20 C 63.11 139.05 62.45 131.78 60.28 129.77 C 54.45 124.53 64.64 124.05 62.81 118.10 C 66.15 122.49 74.76 114.53 70.96 109.91 C 68.69 111.80 63.12 113.53 62.51 109.42 C 60.61 105.30 65.90 102.86 65.43 98.54 C 69.48 98.03 67.37 93.78 67.34 90.81 Z" />
<path fill="#57667f" d=" M 165.12 110.93 C 167.77 104.49 167.97 93.33 176.09 91.84 C 179.16 92.14 182.55 91.73 184.98 93.97 L 185.22 94.78 C 182.44 94.64 179.64 94.49 176.86 94.55 C 169.39 99.22 169.01 109.89 165.20 117.19 C 164.89 116.78 164.27 115.96 163.96 115.55 C 164.39 114.02 164.76 112.48 165.12 110.93 Z" />
<path fill="#1781c8" d=" M 176.86 94.55 C 179.64 94.49 182.44 94.64 185.22 94.78 C 189.52 96.03 193.64 97.80 197.83 99.34 C 203.76 101.41 209.99 102.46 216.04 104.14 C 219.35 105.10 222.75 105.83 225.89 107.28 C 226.03 110.32 225.29 113.28 224.21 116.08 C 215.96 129.15 214.00 146.08 204.66 158.88 C 197.36 153.19 204.98 142.79 204.83 135.34 C 202.03 130.96 194.55 129.35 191.45 134.14 C 191.91 141.25 188.46 148.11 185.61 154.67 C 183.28 159.58 180.76 148.42 178.67 153.64 C 177.72 157.89 174.42 153.97 172.18 153.11 C 170.33 154.90 170.20 159.32 166.97 159.08 C 170.54 137.63 176.46 116.66 179.95 95.19 C 179.17 95.03 177.63 94.71 176.86 94.55 Z" />
<path fill="#1c5c94" d=" M 165.20 117.19 C 169.01 109.89 169.39 99.22 176.86 94.55 C 174.05 100.83 170.01 106.88 170.01 114.00 C 170.88 120.54 164.50 125.24 166.24 131.85 C 168.67 143.29 162.91 154.25 158.54 164.45 C 158.98 180.91 145.48 196.49 152.24 212.94 C 154.61 213.29 156.47 211.50 158.44 210.49 C 169.21 204.43 181.93 204.29 193.74 201.71 C 196.22 199.49 198.10 196.75 199.91 193.98 C 200.15 194.43 200.65 195.31 200.89 195.75 C 200.25 196.83 199.62 197.92 199.01 199.03 C 197.94 200.90 196.87 202.76 195.83 204.65 C 187.06 209.09 176.84 206.22 168.16 210.98 C 147.64 215.22 140.68 238.08 136.74 256.00 L 130.87 256.00 C 131.01 241.99 135.96 228.49 142.49 216.41 C 145.27 205.27 143.81 193.16 148.33 182.39 C 161.44 180.45 146.93 160.28 159.10 158.97 C 159.57 150.69 163.68 144.67 164.12 136.41 C 160.02 137.82 162.15 132.48 161.86 129.89 C 163.65 125.85 163.85 121.36 165.20 117.19 Z" />
<path fill="#1570b2" d=" M 176.86 94.55 C 177.63 94.71 179.17 95.03 179.95 95.19 C 176.46 116.66 170.54 137.63 166.97 159.08 C 170.20 159.32 170.33 154.90 172.18 153.11 C 174.42 153.97 177.72 157.89 178.67 153.64 C 180.76 148.42 183.28 159.58 185.61 154.67 C 188.46 148.11 191.91 141.25 191.45 134.14 C 194.55 129.35 202.03 130.96 204.83 135.34 C 204.98 142.79 197.36 153.19 204.66 158.88 C 214.00 146.08 215.96 129.15 224.21 116.08 C 223.75 118.63 223.24 121.17 222.75 123.72 C 215.66 142.81 210.63 162.56 203.85 181.74 C 201.69 185.49 200.29 189.67 199.91 193.98 C 198.10 196.75 196.22 199.49 193.74 201.71 C 181.93 204.29 169.21 204.43 158.44 210.49 C 156.47 211.50 154.61 213.29 152.24 212.94 C 145.48 196.49 158.98 180.91 158.54 164.45 C 162.91 154.25 168.67 143.29 166.24 131.85 C 164.50 125.24 170.88 120.54 170.01 114.00 C 170.01 106.88 174.05 100.83 176.86 94.55 Z" />
<path fill="#7e7886" d=" M 208.89 100.21 C 210.00 97.45 216.59 92.70 217.40 97.15 C 217.18 98.78 217.01 100.42 216.70 102.03 C 214.02 101.83 211.34 101.32 208.89 100.21 Z" />
<path fill="#4c6a8c" d=" M 202.34 98.19 C 203.52 98.39 204.69 98.66 205.87 98.89 C 206.88 99.33 207.88 99.76 208.89 100.21 C 211.34 101.32 214.02 101.83 216.70 102.03 C 216.53 102.56 216.21 103.61 216.04 104.14 C 209.99 102.46 203.76 101.41 197.83 99.34 C 199.35 99.02 200.86 98.64 202.34 98.19 Z" />
<path fill="#251825" d=" M 0.00 105.47 C 3.63 107.67 7.08 104.83 10.69 105.26 C 15.85 109.49 20.94 114.59 28.57 111.71 C 32.72 112.83 31.04 105.16 34.72 106.20 C 39.58 110.15 39.24 116.92 41.71 122.24 C 43.53 128.35 44.26 134.69 43.90 141.07 L 43.86 142.15 C 40.06 142.56 38.94 138.45 35.93 137.03 C 32.31 141.49 31.37 149.70 23.99 148.93 C 16.34 146.72 6.86 141.60 0.00 148.20 L 0.00 105.47 Z" />
<path fill="#5a3638" d=" M 52.21 114.09 C 54.40 113.44 59.04 120.96 58.58 116.37 C 57.73 112.78 62.02 116.70 62.81 118.10 C 64.64 124.05 54.45 124.53 60.28 129.77 C 53.74 124.91 54.15 136.80 56.29 140.80 C 57.82 143.28 57.72 149.80 61.80 146.88 C 57.12 155.61 57.35 167.36 64.24 174.92 C 69.16 174.94 64.91 168.45 66.32 165.41 C 69.31 162.90 71.87 158.68 76.17 161.33 C 81.11 158.56 82.68 166.03 85.90 168.38 C 81.83 167.47 78.54 163.88 74.24 164.10 C 70.03 169.52 77.68 174.62 79.58 179.36 C 82.30 182.72 80.83 191.35 86.08 192.06 C 85.67 187.91 83.19 184.16 83.47 179.92 C 87.70 176.49 98.67 173.74 95.99 166.06 C 94.60 170.45 89.05 172.49 85.90 168.38 C 88.35 166.41 91.03 165.84 93.71 167.68 C 94.19 162.16 100.41 166.33 102.20 169.00 C 102.84 165.51 99.96 163.96 97.69 162.07 C 99.65 157.76 104.06 166.62 106.19 168.82 C 111.58 171.79 101.04 179.10 106.51 180.50 C 106.21 186.83 117.68 183.26 115.73 177.92 C 117.72 179.06 119.94 178.49 122.00 177.90 C 124.35 176.92 127.44 175.85 125.38 171.73 C 127.44 172.87 129.24 174.56 128.51 177.11 C 132.97 177.56 125.96 168.15 131.46 170.50 C 134.17 170.83 127.51 165.12 131.32 166.60 C 136.48 168.50 141.58 160.87 138.80 156.31 C 150.42 163.79 140.14 178.53 132.94 186.03 C 127.79 187.05 124.60 189.63 126.72 194.81 C 123.85 198.59 123.97 195.78 122.05 194.06 C 118.27 199.29 109.90 198.72 103.76 201.32 C 100.19 200.58 96.61 199.74 92.98 200.96 C 86.68 198.07 77.66 200.95 73.80 193.75 C 70.82 187.32 66.37 181.90 62.03 176.22 C 53.95 166.03 49.75 153.68 43.86 142.15 L 43.90 141.07 C 45.34 142.40 48.61 144.19 48.80 140.94 C 47.99 131.88 47.84 122.35 52.21 114.09 Z" />
<path fill="#313045" d=" M 157.81 133.04 C 152.80 126.26 163.38 121.50 163.96 115.55 C 164.27 115.96 164.89 116.78 165.20 117.19 C 163.85 121.36 163.65 125.85 161.86 129.89 C 157.89 139.01 158.07 149.58 153.27 158.34 C 153.40 150.56 158.89 142.45 153.23 134.94 C 154.82 134.47 156.39 133.90 157.81 133.04 Z" />
<path fill="#262637" d=" M 230.80 124.81 C 233.70 123.44 229.48 118.57 233.06 117.99 C 239.96 117.28 234.57 126.49 237.64 130.10 C 234.90 135.86 237.78 141.99 232.53 147.37 C 233.29 150.40 238.13 152.04 241.42 151.54 C 245.05 156.83 251.75 148.99 256.00 154.30 L 256.00 256.00 L 230.95 256.00 C 231.40 252.29 231.85 248.59 231.93 244.86 C 233.59 241.86 235.12 238.64 235.14 235.14 C 235.15 232.35 235.56 229.44 234.06 226.99 C 232.00 221.67 230.00 216.27 226.65 211.57 C 221.03 211.86 221.97 202.89 217.14 201.17 C 215.62 203.44 214.97 200.90 213.85 202.11 C 211.55 200.73 210.57 194.60 207.60 197.58 C 205.36 199.97 203.00 196.73 200.89 195.75 C 200.65 195.31 200.15 194.43 199.91 193.98 C 201.84 190.15 203.59 186.08 203.85 181.74 C 210.63 162.56 215.66 142.81 222.75 123.72 C 225.41 124.08 228.09 124.67 230.80 124.81 Z" />
<path fill="#29171e" d=" M 56.29 140.80 C 54.15 136.80 53.74 124.91 60.28 129.77 C 62.45 131.78 63.11 139.05 67.18 136.20 C 70.39 133.49 68.03 138.19 67.85 139.95 C 65.53 141.97 63.58 144.38 61.80 146.88 C 57.72 149.80 57.82 143.28 56.29 140.80 Z" />
<path fill="#22436c" d=" M 153.27 158.34 C 158.07 149.58 157.89 139.01 161.86 129.89 C 162.15 132.48 160.02 137.82 164.12 136.41 C 163.68 144.67 159.57 150.69 159.10 158.97 C 146.93 160.28 161.44 180.45 148.33 182.39 C 143.81 193.16 145.27 205.27 142.49 216.41 C 135.96 228.49 131.01 241.99 130.87 256.00 L 127.96 256.00 C 129.88 239.50 136.49 224.14 140.08 208.01 C 143.99 195.38 145.81 182.16 150.76 169.86 C 151.41 167.10 151.85 164.31 152.18 161.50 C 152.55 160.45 152.92 159.39 153.27 158.34 Z" />
<path fill="#392d3d" d=" M 145.30 132.52 C 148.02 133.06 150.57 134.17 153.23 134.94 C 146.93 133.20 149.52 140.20 148.89 144.14 C 146.25 143.22 146.31 139.23 143.04 138.97 C 142.26 140.59 142.00 142.39 141.59 144.13 C 139.73 142.20 138.57 139.76 136.99 137.63 C 137.67 131.13 142.57 136.39 145.30 132.52 Z" />
<path fill="#112c54" d=" M 199.19 133.17 C 207.41 134.28 192.80 143.46 200.02 142.18 C 197.42 153.94 192.83 165.27 190.02 177.02 C 189.77 181.12 183.33 183.11 183.22 178.02 C 186.67 165.49 191.60 153.36 194.58 140.65 C 195.11 137.62 196.68 135.00 199.19 133.17 Z" />
<path fill="#7b504f" d=" M 67.85 139.95 C 75.02 136.43 82.43 135.06 89.86 133.90 C 87.40 139.07 100.32 136.37 99.09 142.94 C 95.62 142.16 91.91 141.25 92.38 146.04 C 88.50 146.11 86.05 143.33 84.51 140.11 C 81.70 142.87 76.04 147.84 82.87 148.07 C 80.60 141.99 89.86 147.83 92.22 149.74 C 97.13 148.09 102.88 152.81 99.71 157.76 C 96.35 157.98 95.12 159.30 97.69 162.07 C 99.96 163.96 102.84 165.51 102.20 169.00 C 100.41 166.33 94.19 162.16 93.71 167.68 C 91.03 165.84 88.35 166.41 85.90 168.38 C 82.68 166.03 81.11 158.56 76.17 161.33 C 71.87 158.68 69.31 162.90 66.32 165.41 C 64.91 168.45 69.16 174.94 64.24 174.92 C 57.35 167.36 57.12 155.61 61.80 146.88 C 63.58 144.38 65.53 141.97 67.85 139.95 Z" />
<path fill="#6d4040" d=" M 89.86 133.90 C 95.75 135.27 101.46 138.36 107.67 137.48 C 111.06 139.69 113.83 143.41 117.80 144.43 C 122.93 141.73 128.50 146.55 133.01 142.78 C 134.26 146.37 134.28 150.96 138.10 152.92 C 137.83 154.22 136.82 155.93 138.80 156.31 C 141.58 160.87 136.48 168.50 131.32 166.60 C 127.51 165.12 134.17 170.83 131.46 170.50 C 125.96 168.15 132.97 177.56 128.51 177.11 C 129.24 174.56 127.44 172.87 125.38 171.73 C 127.44 175.85 124.35 176.92 122.00 177.90 C 122.77 175.21 121.45 171.75 124.75 170.48 C 119.61 167.14 117.49 162.38 118.85 155.95 C 114.91 159.84 113.37 152.88 109.12 154.27 C 105.41 155.67 99.04 147.34 101.88 157.11 C 103.39 153.76 104.27 156.58 105.24 158.53 C 109.42 155.16 113.92 163.39 110.22 166.25 C 110.81 170.41 111.43 175.90 115.73 177.92 C 117.68 183.26 106.21 186.83 106.51 180.50 C 101.04 179.10 111.58 171.79 106.19 168.82 C 104.06 166.62 99.65 157.76 97.69 162.07 C 95.12 159.30 96.35 157.98 99.71 157.76 C 102.88 152.81 97.13 148.09 92.22 149.74 C 89.86 147.83 80.60 141.99 82.87 148.07 C 76.04 147.84 81.70 142.87 84.51 140.11 C 86.05 143.33 88.50 146.11 92.38 146.04 C 91.91 141.25 95.62 142.16 99.09 142.94 C 100.32 136.37 87.40 139.07 89.86 133.90 Z" />
<path fill="#211625" d=" M 148.89 144.14 C 149.52 140.20 146.93 133.20 153.23 134.94 C 158.89 142.45 153.40 150.56 153.27 158.34 C 152.92 159.39 152.55 160.45 152.18 161.50 C 148.63 160.48 151.45 155.72 150.79 152.92 C 146.62 154.29 141.92 155.94 138.10 152.92 C 134.28 150.96 134.26 146.37 133.01 142.78 C 133.00 142.10 132.99 140.73 132.99 140.04 C 134.34 139.27 135.68 138.47 136.99 137.63 C 138.57 139.76 139.73 142.20 141.59 144.13 C 142.00 142.39 142.26 140.59 143.04 138.97 C 146.31 139.23 146.25 143.22 148.89 144.14 Z" />
<path fill="#18121c" d=" M 35.93 137.03 C 38.94 138.45 40.06 142.56 43.86 142.15 C 49.75 153.68 53.95 166.03 62.03 176.22 C 62.09 179.00 60.05 181.10 58.00 182.68 C 52.84 183.92 47.80 185.81 43.44 188.88 C 29.26 194.60 17.85 204.75 5.85 213.77 C 4.02 215.75 2.09 217.65 0.00 219.36 L 0.00 148.20 C 6.86 141.60 16.34 146.72 23.99 148.93 C 31.37 149.70 32.31 141.49 35.93 137.03 Z" />
<path fill="#7b4e4b" d=" M 101.88 157.11 C 99.04 147.34 105.41 155.67 109.12 154.27 C 113.37 152.88 114.91 159.84 118.85 155.95 C 117.49 162.38 119.61 167.14 124.75 170.48 C 121.45 171.75 122.77 175.21 122.00 177.90 C 119.94 178.49 117.72 179.06 115.73 177.92 C 111.43 175.90 110.81 170.41 110.22 166.25 C 113.92 163.39 109.42 155.16 105.24 158.53 C 104.27 156.58 103.39 153.76 101.88 157.11 Z" />
<path fill="#3f2a34" d=" M 138.10 152.92 C 141.92 155.94 146.62 154.29 150.79 152.92 C 151.45 155.72 148.63 160.48 152.18 161.50 C 151.85 164.31 151.41 167.10 150.76 169.86 C 144.09 167.32 144.24 178.09 141.03 181.96 C 138.46 183.56 135.84 185.11 132.94 186.03 C 140.14 178.53 150.42 163.79 138.80 156.31 C 136.82 155.93 137.83 154.22 138.10 152.92 Z" />
<path fill="#421e27" d=" M 74.24 164.10 C 78.54 163.88 81.83 167.47 85.90 168.38 C 89.05 172.49 94.60 170.45 95.99 166.06 C 98.67 173.74 87.70 176.49 83.47 179.92 C 83.19 184.16 85.67 187.91 86.08 192.06 C 80.83 191.35 82.30 182.72 79.58 179.36 C 77.68 174.62 70.03 169.52 74.24 164.10 Z" />
<path fill="#201c2a" d=" M 141.03 181.96 C 144.24 178.09 144.09 167.32 150.76 169.86 C 145.81 182.16 143.99 195.38 140.08 208.01 C 136.49 224.14 129.88 239.50 127.96 256.00 L 121.83 256.00 C 128.37 247.45 126.69 236.65 124.10 227.15 C 125.85 225.47 126.09 224.57 123.28 224.92 C 125.14 220.33 122.16 209.11 130.65 210.31 C 132.09 207.56 134.19 205.36 136.73 203.60 C 139.99 196.79 137.99 188.82 141.03 181.96 Z" />
<path fill="#42282b" d=" M 62.03 176.22 C 66.37 181.90 70.82 187.32 73.80 193.75 C 70.23 196.16 75.91 201.37 71.50 203.42 C 68.59 211.04 81.59 210.98 79.11 219.11 C 79.69 221.54 83.54 216.55 84.91 219.10 C 87.22 221.94 91.30 219.83 94.16 219.07 C 94.19 221.61 91.49 222.62 90.78 224.83 C 94.53 225.60 99.45 224.07 102.06 227.75 C 106.83 225.13 111.63 229.03 115.86 224.25 C 123.64 229.39 115.89 238.31 118.69 245.63 C 120.57 248.99 117.89 253.26 121.05 256.00 L 108.80 256.00 C 108.76 250.65 111.18 246.19 115.74 243.75 C 114.39 239.77 119.11 232.32 114.24 231.08 C 113.54 233.05 110.37 238.98 110.01 233.98 C 109.77 229.22 105.92 236.99 103.29 236.39 C 101.02 236.18 96.92 236.24 98.12 239.59 C 105.53 241.17 95.92 251.42 91.13 246.99 C 86.33 246.32 85.00 243.35 87.83 239.46 C 81.11 238.25 88.16 236.03 85.66 231.99 C 86.67 227.41 81.40 226.71 78.26 225.47 C 76.54 229.08 72.76 227.30 69.79 226.67 C 71.49 225.34 74.41 224.97 74.14 222.24 C 68.50 222.77 62.73 221.42 57.91 225.13 C 57.30 221.25 64.14 220.19 59.72 216.80 C 63.03 211.68 66.75 205.59 69.73 199.81 C 70.55 198.04 67.98 197.76 67.04 196.90 C 61.98 193.63 63.36 185.20 58.00 182.68 C 60.05 181.10 62.09 179.00 62.03 176.22 Z" />
<path fill="#331e23" d=" M 132.94 186.03 C 135.84 185.11 138.46 183.56 141.03 181.96 C 137.99 188.82 139.99 196.79 136.73 203.60 C 134.19 205.36 132.09 207.56 130.65 210.31 C 122.16 209.11 125.14 220.33 123.28 224.92 C 126.09 224.57 125.85 225.47 124.10 227.15 C 126.69 236.65 128.37 247.45 121.83 256.00 L 121.05 256.00 C 117.89 253.26 120.57 248.99 118.69 245.63 C 115.89 238.31 123.64 229.39 115.86 224.25 C 111.63 229.03 106.83 225.13 102.06 227.75 C 99.45 224.07 94.53 225.60 90.78 224.83 C 91.49 222.62 94.19 221.61 94.16 219.07 C 91.30 219.83 87.22 221.94 84.91 219.10 C 83.54 216.55 79.69 221.54 79.11 219.11 C 81.59 210.98 68.59 211.04 71.50 203.42 C 75.91 201.37 70.23 196.16 73.80 193.75 C 77.66 200.95 86.68 198.07 92.98 200.96 C 104.63 204.38 118.86 206.55 128.77 197.76 C 132.21 194.93 131.80 189.97 132.94 186.03 Z" />
<path fill="#1c4976" d=" M 199.91 193.98 C 200.29 189.67 201.69 185.49 203.85 181.74 C 203.59 186.08 201.84 190.15 199.91 193.98 Z" />
<path fill="#4c3133" d=" M 43.44 188.88 C 47.80 185.81 52.84 183.92 58.00 182.68 C 63.36 185.20 61.98 193.63 67.04 196.90 C 67.98 197.76 70.55 198.04 69.73 199.81 C 66.75 205.59 63.03 211.68 59.72 216.80 C 64.14 220.19 57.30 221.25 57.91 225.13 C 62.73 221.42 68.50 222.77 74.14 222.24 C 74.41 224.97 71.49 225.34 69.79 226.67 C 72.76 227.30 76.54 229.08 78.26 225.47 C 81.40 226.71 86.67 227.41 85.66 231.99 C 88.16 236.03 81.11 238.25 87.83 239.46 C 85.00 243.35 86.33 246.32 91.13 246.99 C 95.92 251.42 105.53 241.17 98.12 239.59 C 96.92 236.24 101.02 236.18 103.29 236.39 C 105.92 236.99 109.77 229.22 110.01 233.98 C 110.37 238.98 113.54 233.05 114.24 231.08 C 119.11 232.32 114.39 239.77 115.74 243.75 C 111.18 246.19 108.76 250.65 108.80 256.00 L 82.02 256.00 C 79.01 252.54 80.95 248.53 82.20 244.70 C 80.59 240.37 84.76 236.33 83.02 232.10 C 80.08 234.15 76.12 237.69 72.92 234.10 C 69.76 233.06 72.11 230.18 72.75 228.12 C 69.51 227.80 66.48 226.33 63.24 226.10 C 60.62 228.39 60.56 232.17 59.40 235.24 C 60.71 228.55 52.88 229.21 49.66 225.35 C 48.05 224.40 45.11 219.76 48.80 220.03 C 50.70 221.79 52.67 223.51 54.86 224.92 C 58.01 222.37 60.21 215.47 53.82 216.69 C 59.66 214.47 58.21 209.20 59.69 204.05 C 55.06 200.20 57.08 215.25 52.22 209.78 C 54.58 204.75 48.05 203.79 47.82 199.45 C 53.82 199.56 53.57 189.72 53.79 184.77 C 51.96 189.58 48.24 193.34 43.44 188.88 Z" />
<path fill="#5c413f" d=" M 43.44 188.88 C 48.24 193.34 51.96 189.58 53.79 184.77 C 53.57 189.72 53.82 199.56 47.82 199.45 C 48.05 203.79 54.58 204.75 52.22 209.78 C 57.08 215.25 55.06 200.20 59.69 204.05 C 58.21 209.20 59.66 214.47 53.82 216.69 C 60.21 215.47 58.01 222.37 54.86 224.92 C 52.67 223.51 50.70 221.79 48.80 220.03 C 51.03 216.57 49.79 215.61 46.17 217.22 C 42.51 219.93 32.41 211.73 40.94 212.77 C 42.42 205.40 36.49 211.94 32.89 211.88 C 26.43 211.65 37.38 205.90 33.15 202.88 C 29.94 200.43 30.88 204.88 29.86 206.73 C 27.89 206.43 25.06 205.68 24.58 208.45 C 24.67 213.30 18.69 215.62 20.78 220.64 C 15.33 220.06 17.03 226.63 12.07 226.22 C 12.81 231.10 19.01 232.56 22.27 235.72 C 12.72 232.25 20.38 240.72 15.68 242.65 C 10.38 245.14 11.81 250.42 10.50 255.11 C 9.70 248.62 3.13 253.84 0.91 250.14 C 5.12 247.31 5.93 241.80 10.56 239.53 C 12.22 238.39 14.36 233.55 10.64 235.55 C 7.13 236.86 9.72 231.97 11.66 231.50 C 11.48 228.60 7.22 228.21 7.29 225.54 C 10.23 224.18 12.43 221.74 14.71 219.51 C 18.20 211.97 10.19 213.19 5.85 213.77 C 17.85 204.75 29.26 194.60 43.44 188.88 Z" />
<path fill="#4a2a2c" d=" M 126.72 194.81 C 124.60 189.63 127.79 187.05 132.94 186.03 C 131.80 189.97 132.21 194.93 128.77 197.76 C 118.86 206.55 104.63 204.38 92.98 200.96 C 96.61 199.74 100.19 200.58 103.76 201.32 C 109.90 198.72 118.27 199.29 122.05 194.06 C 123.97 195.78 123.85 198.59 126.72 194.81 Z" />
<path fill="#796765" d=" M 199.01 199.03 C 199.62 197.92 200.25 196.83 200.89 195.75 C 203.00 196.73 205.36 199.97 207.60 197.58 C 210.57 194.60 211.55 200.73 213.85 202.11 C 213.31 205.23 201.78 209.91 209.20 210.73 C 215.90 212.43 227.21 218.52 219.83 225.73 C 228.51 222.98 227.33 230.85 233.94 232.00 C 234.04 230.33 234.07 228.66 234.06 226.99 C 235.56 229.44 235.15 232.35 235.14 235.14 C 232.28 236.74 229.63 232.62 227.09 235.40 C 223.49 233.11 220.55 230.08 215.91 231.99 C 221.52 226.13 210.08 228.36 211.30 223.56 C 214.79 222.71 213.20 217.71 217.07 217.37 C 210.69 216.84 207.67 210.72 201.08 212.00 C 196.90 215.56 192.57 210.22 187.70 210.68 C 191.29 208.89 196.83 209.64 198.21 205.14 C 201.33 205.67 208.06 209.00 206.77 203.38 C 204.29 201.75 201.56 200.55 199.01 199.03 Z" />
<path fill="#534e53" d=" M 199.01 199.03 C 201.56 200.55 204.29 201.75 206.77 203.38 C 208.06 209.00 201.33 205.67 198.21 205.14 C 197.61 205.02 196.42 204.77 195.83 204.65 C 196.87 202.76 197.94 200.90 199.01 199.03 Z" />
<path fill="#837474" d=" M 213.85 202.11 C 214.97 200.90 215.62 203.44 217.14 201.17 C 221.97 202.89 221.03 211.86 226.65 211.57 C 230.00 216.27 232.00 221.67 234.06 226.99 C 234.07 228.66 234.04 230.33 233.94 232.00 C 227.33 230.85 228.51 222.98 219.83 225.73 C 227.21 218.52 215.90 212.43 209.20 210.73 C 201.78 209.91 213.31 205.23 213.85 202.11 Z" />
<path fill="#4e3839" d=" M 29.86 206.73 C 30.88 204.88 29.94 200.43 33.15 202.88 C 37.38 205.90 26.43 211.65 32.89 211.88 C 36.49 211.94 42.42 205.40 40.94 212.77 C 32.41 211.73 42.51 219.93 46.17 217.22 C 42.07 219.76 38.34 223.46 33.22 221.05 C 38.35 230.98 27.23 222.80 29.56 228.38 C 30.60 232.06 25.13 228.12 23.15 227.99 C 23.29 231.92 25.31 236.31 22.79 239.81 C 19.16 244.93 25.55 250.77 24.24 256.00 L 10.28 256.00 L 10.50 255.11 C 11.81 250.42 10.38 245.14 15.68 242.65 C 20.38 240.72 12.72 232.25 22.27 235.72 C 19.01 232.56 12.81 231.10 12.07 226.22 C 17.03 226.63 15.33 220.06 20.78 220.64 C 18.69 215.62 24.67 213.30 24.58 208.45 C 25.06 205.68 27.89 206.43 29.86 206.73 Z" />
<path fill="#6b707e" d=" M 168.16 210.98 C 176.84 206.22 187.06 209.09 195.83 204.65 C 196.42 204.77 197.61 205.02 198.21 205.14 C 196.83 209.64 191.29 208.89 187.70 210.68 C 182.60 211.01 178.45 214.52 173.19 214.26 C 169.31 216.99 164.96 218.63 160.03 217.88 C 162.73 215.57 165.62 213.48 168.16 210.98 Z" />
<path fill="#15477b" d=" M 136.74 256.00 C 140.68 238.08 147.64 215.22 168.16 210.98 C 165.62 213.48 162.73 215.57 160.03 217.88 C 151.73 219.26 149.79 230.06 146.47 236.37 C 145.60 243.64 140.85 249.23 138.72 256.00 L 136.74 256.00 Z" />
<path fill="#715b56" d=" M 173.19 214.26 C 178.45 214.52 182.60 211.01 187.70 210.68 C 192.57 210.22 196.90 215.56 201.08 212.00 C 207.67 210.72 210.69 216.84 217.07 217.37 C 213.20 217.71 214.79 222.71 211.30 223.56 C 210.08 228.36 221.52 226.13 215.91 231.99 C 220.55 230.08 223.49 233.11 227.09 235.40 C 229.63 232.62 232.28 236.74 235.14 235.14 C 235.12 238.64 233.59 241.86 231.93 244.86 C 231.00 246.47 230.27 248.18 229.52 249.88 C 225.68 248.43 221.22 244.88 225.11 240.92 C 221.08 242.29 217.07 241.46 213.05 242.65 C 207.59 236.52 218.99 239.77 222.40 237.48 C 215.78 238.72 210.92 234.18 205.17 232.20 C 203.93 234.06 202.83 236.01 201.90 238.04 C 205.86 239.29 207.11 233.74 211.07 236.08 C 203.16 244.23 192.00 238.47 182.11 238.91 C 180.60 235.36 187.43 238.59 185.83 235.19 C 181.50 233.05 175.83 233.69 171.06 233.02 C 166.50 235.03 161.41 238.59 156.27 236.78 C 154.66 232.76 156.52 228.54 156.12 224.53 C 157.37 222.28 158.79 220.13 160.03 217.88 C 164.96 218.63 169.31 216.99 173.19 214.26 Z" />
<path fill="#655250" d=" M 5.85 213.77 C 10.19 213.19 18.20 211.97 14.71 219.51 C 12.43 221.74 10.23 224.18 7.29 225.54 C 7.22 228.21 11.48 228.60 11.66 231.50 C 9.72 231.97 7.13 236.86 10.64 235.55 C 14.36 233.55 12.22 238.39 10.56 239.53 C 5.93 241.80 5.12 247.31 0.91 250.14 C 3.13 253.84 9.70 248.62 10.50 255.11 L 10.28 256.00 L 0.00 256.00 L 0.00 219.36 C 2.09 217.65 4.02 215.75 5.85 213.77 Z" />
<path fill="#3e2d31" d=" M 46.17 217.22 C 49.79 215.61 51.03 216.57 48.80 220.03 C 45.11 219.76 48.05 224.40 49.66 225.35 C 52.88 229.21 60.71 228.55 59.40 235.24 C 59.31 235.90 59.12 237.22 59.02 237.88 C 54.70 235.34 51.09 242.78 46.99 238.21 C 44.27 244.30 42.74 251.22 37.77 256.00 L 24.24 256.00 C 25.55 250.77 19.16 244.93 22.79 239.81 C 25.31 236.31 23.29 231.92 23.15 227.99 C 25.13 228.12 30.60 232.06 29.56 228.38 C 27.23 222.80 38.35 230.98 33.22 221.05 C 38.34 223.46 42.07 219.76 46.17 217.22 Z" />
<path fill="#1d345a" d=" M 146.47 236.37 C 149.79 230.06 151.73 219.26 160.03 217.88 C 158.79 220.13 157.37 222.28 156.12 224.53 C 150.40 233.88 148.61 245.18 148.93 256.00 L 138.72 256.00 C 140.85 249.23 145.60 243.64 146.47 236.37 Z" />
<path fill="#5e4a4a" d=" M 148.93 256.00 C 148.61 245.18 150.40 233.88 156.12 224.53 C 156.52 228.54 154.66 232.76 156.27 236.78 C 161.41 238.59 166.50 235.03 171.06 233.02 C 175.83 233.69 181.50 233.05 185.83 235.19 C 187.43 238.59 180.60 235.36 182.11 238.91 C 192.00 238.47 203.16 244.23 211.07 236.08 C 207.11 233.74 205.86 239.29 201.90 238.04 C 202.83 236.01 203.93 234.06 205.17 232.20 C 210.92 234.18 215.78 238.72 222.40 237.48 C 218.99 239.77 207.59 236.52 213.05 242.65 C 217.07 241.46 221.08 242.29 225.11 240.92 C 221.22 244.88 225.68 248.43 229.52 249.88 C 230.27 248.18 231.00 246.47 231.93 244.86 C 231.85 248.59 231.40 252.29 230.95 256.00 L 186.78 256.00 C 197.62 255.49 190.24 254.32 189.99 249.89 C 195.19 250.15 196.88 255.91 202.09 253.98 C 198.96 251.00 195.80 245.33 190.47 246.50 C 189.69 242.10 186.69 242.85 185.49 246.61 C 180.41 248.47 176.38 241.16 170.86 242.72 C 173.12 239.29 178.07 242.68 181.21 241.88 C 178.13 238.68 173.78 235.76 169.36 238.37 C 162.64 242.64 181.48 250.19 172.81 251.38 C 176.69 255.49 187.10 246.90 186.08 256.00 L 148.93 256.00 Z" />
<path fill="#5a4244" d=" M 63.24 226.10 C 66.48 226.33 69.51 227.80 72.75 228.12 C 72.11 230.18 69.76 233.06 72.92 234.10 C 76.12 237.69 80.08 234.15 83.02 232.10 C 84.76 236.33 80.59 240.37 82.20 244.70 C 80.95 248.53 79.01 252.54 82.02 256.00 L 56.88 256.00 C 56.75 249.85 57.80 243.85 59.02 237.88 C 59.12 237.22 59.31 235.90 59.40 235.24 C 60.56 232.17 60.62 228.39 63.24 226.10 Z" />
<path fill="#201a25" d=" M 46.99 238.21 C 51.09 242.78 54.70 235.34 59.02 237.88 C 57.80 243.85 56.75 249.85 56.88 256.00 L 37.77 256.00 C 42.74 251.22 44.27 244.30 46.99 238.21 Z" />
<path fill="#543f3b" d=" M 169.36 238.37 C 173.78 235.76 178.13 238.68 181.21 241.88 C 178.07 242.68 173.12 239.29 170.86 242.72 C 176.38 241.16 180.41 248.47 185.49 246.61 C 186.69 242.85 189.69 242.10 190.47 246.50 C 195.80 245.33 198.96 251.00 202.09 253.98 C 196.88 255.91 195.19 250.15 189.99 249.89 C 190.24 254.32 197.62 255.49 186.78 256.00 L 186.08 256.00 C 187.10 246.90 176.69 255.49 172.81 251.38 C 181.48 250.19 162.64 242.64 169.36 238.37 Z" />
</svg>
